# xmcd
#
# Track frame offsets: 
#        150
#        25392
#        45045
#        64697
#        90233
#        111207
#        132285
#        145002
#        161059
#        176695
#        191861
#        214305
#        227512
#        251176
#
# Disc length: 3655 seconds
#
# Revision: 0
# Processed by: cddbd v1.5.2PL0 Copyright (c) Steve Scherf et al.
# Submitted via: ExactAudioCopy v0.99pb5
#
DISCID=bf0e450e
DTITLE=Urma - Trend Off
DYEAR=2007
DGENRE=Alternative
TTITLE0=What you pay is what you get
TTITLE1=A door to my world
TTITLE2=Ready or not
TTITLE3=Roll the dice
TTITLE4=A place for me
TTITLE5=Is it fair?
TTITLE6=One answer
TTITLE7=Under my skin
TTITLE8=Over
TTITLE9=Alright
TTITLE10=There's a time
TTITLE11=What are friends for?
TTITLE12=Slide
TTITLE13=Back to my room
EXTD=
EXTT0=
EXTT1=
EXTT2=
EXTT3=
EXTT4=
EXTT5=
EXTT6=
EXTT7=
EXTT8=
EXTT9=
EXTT10=
EXTT11=
EXTT12=
EXTT13=
PLAYORDER=
